HIERARCHY
ROOT Hips
{
  OFFSET 36.6509 81.2762 6.09755
  CHANNELS 6 Xposition Yposition Zposition Zrotation Xrotation Yrotation
  JOINT spine
  {
    OFFSET 0 6.24479 0.359107
    CHANNELS 3 Zrotation Xrotation Yrotation
    JOINT spine1
    {
      OFFSET 0 9.06941 0
      CHANNELS 3 Zrotation Xrotation Yrotation
      JOINT spine2
      {
        OFFSET 0 8.69014 0
        CHANNELS 3 Zrotation Xrotation Yrotation
        JOINT Neck
        {
          OFFSET 0 22.3112 1.06372
          CHANNELS 3 Zrotation Xrotation Yrotation
          JOINT Head
          {
            OFFSET 0 6.74081 0
            CHANNELS 3 Zrotation Xrotation Yrotation
            End Site
            {
              OFFSET 0 16.3165 -5.38097
            }
          }
        }
        JOINT RightShoulder
        {
          OFFSET -3.65916 9.38468 -0.509514
          CHANNELS 3 Zrotation Xrotation Yrotation
          JOINT RightArm
          {
            OFFSET 0 12.3089 0
            CHANNELS 3 Zrotation Xrotation Yrotation
            JOINT RightArmRoll
            {
              OFFSET 0 6.21375 0
              CHANNELS 3 Zrotation Xrotation Yrotation
              JOINT RightForeArm
              {
                OFFSET 0 18.0985 0
                CHANNELS 3 Zrotation Xrotation Yrotation
                JOINT RightForeArmRoll
                {
                  OFFSET 0 6.97279 0
                  CHANNELS 3 Zrotation Xrotation Yrotation
                  JOINT RightHand
                  {
                    OFFSET 0 13.9929 0
                    CHANNELS 3 Zrotation Xrotation Yrotation
                    End Site
                    {
                      OFFSET 0 0 0
                    }
                  }
                }
              }
            }
          }
        }
        JOINT LeftShoulder
        {
          OFFSET 3.65916 9.38468 -0.509514
          CHANNELS 3 Zrotation Xrotation Yrotation
          JOINT LeftArm
          {
            OFFSET 0 12.3089 0
            CHANNELS 3 Zrotation Xrotation Yrotation
            JOINT LeftArmRoll
            {
              OFFSET 0 6.21375 0
              CHANNELS 3 Zrotation Xrotation Yrotation
              JOINT LeftForeArm
              {
                OFFSET 0 18.0985 0
                CHANNELS 3 Zrotation Xrotation Yrotation
                JOINT LeftForeArmRoll
                {
                  OFFSET 0 6.97279 0
                  CHANNELS 3 Zrotation Xrotation Yrotation
                  JOINT LeftHand
                  {
                    OFFSET 0 13.9929 0
                    CHANNELS 3 Zrotation Xrotation Yrotation
                    End Site
                    {
                      OFFSET 0 0 0
                    }
                  }
                }
              }
            }
          }
        }
      }
    }
  }
  JOINT RightUpLeg
  {
    OFFSET -5.53515 -1.015 -0.851454
    CHANNELS 3 Zrotation Xrotation Yrotation
    JOINT RightUpLegRoll
    {
      OFFSET 0 16.4075 0
      CHANNELS 3 Zrotation Xrotation Yrotation
      JOINT RightLeg
      {
        OFFSET 0 -20.3181 0
        CHANNELS 3 Zrotation Xrotation Yrotation
        JOINT RightLegRoll
        {
          OFFSET 0 20.3846 0
          CHANNELS 3 Zrotation Xrotation Yrotation
          JOINT RightFoot
          {
            OFFSET 0 16.9668 0
            CHANNELS 3 Zrotation Xrotation Yrotation
            JOINT RightToeBase
            {
              OFFSET 0 14.1834 0
              CHANNELS 3 Zrotation Xrotation Yrotation
              End Site
              {
                OFFSET 0.0060118 6.86889 -0.791746
              }
            }
          }
        }
      }
    }
  }
  JOINT LeftUpLeg
  {
    OFFSET 5.53515 -1.015 -0.851454
    CHANNELS 3 Zrotation Xrotation Yrotation
    JOINT LeftUpLegRoll
    {
      OFFSET 0 16.4076 0
      CHANNELS 3 Zrotation Xrotation Yrotation
      JOINT LeftLeg
      {
        OFFSET 0 20.3181 0
        CHANNELS 3 Zrotation Xrotation Yrotation
        JOINT LeftLegRoll
        {
          OFFSET 0 20.5731 0
          CHANNELS 3 Zrotation Xrotation Yrotation
          JOINT LeftFoot
          {
            OFFSET 0 16.7783 0
            CHANNELS 3 Zrotation Xrotation Yrotation
            JOINT LeftToeBase
            {
              OFFSET 0 14.1834 0
              CHANNELS 3 Zrotation Xrotation Yrotation
              End Site
              {
                OFFSET -0.0269423 6.8689 -0.791746
              }
            }
          }
        }
      }
    }
  }
}
MOTION
Frames: 11
Frame Time: 0.00208333
51.1065 80.6758 13.437 -12.449 -0.695832 70.7817 -1.40679 -3.1428 1.17759 -2.75406 -2.31338 2.45927 -2.78259 -0.67007 2.50507 2.64808 -24.2665 -0.942656 8.53005 22.998 -1.88057 22.3115 -7.01172 -2.42395 -61.9722 63.4236 156.959 5.90595e-006 -9.40892e-007 7.82513e-007 -3.1969 6.79093 -1.20336 -1.00231e-006 7.6283e-006 -2.99634 8.02907 -4.95158 0.697792 -76.8268 -18.0902 9.83564 -89.5835 10.9394 -21.3763 -1.25497e-007 7.24669e-008 1.81551e-009 -4.6794 21.7138 1.42627 -5.35521e-006 -7.14769e-006 3.00001 -8.02942 -4.95156 -0.697724 -174.604 4.91871 0.218358 180 7.01508e-015 178.765 174.686 27.6017 -179.453 -1.24761e-006 -4.95997e-006 0.796066 -37.2078 76.8906 34.1831 10.077 46.4076 -4.84346 -170.851 38.7206 -0.657883 4.54188e-006 -4.6773e-006 -0.541087 0.608691 -17.7427 0.970453 -1.11265e-006 3.62394e-006 0.0880612 9.45584 59.9913 -15.4133 -8.13133 25.2329 3.48432 
51.1472 80.6971 13.4316 -12.5832 -0.724867 70.9757 -1.40641 -3.14905 1.17885 -2.75308 -2.32589 2.46228 -2.78164 -0.682585 2.50801 2.32049 -24.5451 -1.08147 8.89257 23.1439 -2.08078 21.7658 -7.04774 -2.42974 -62.4056 63.4508 157.379 5.90595e-006 -9.40892e-007 7.82513e-007 -3.14689 5.88615 -1.21414 -1.00231e-006 7.6283e-006 -2.99613 8.02907 -4.95158 0.697792 -77.0948 -17.9565 9.75318 -89.3534 11.0093 -21.402 -1.25497e-007 7.24669e-008 1.81553e-009 -4.72567 21.7664 1.43896 -5.35521e-006 -7.14769e-006 3.00001 -8.02942 -4.95156 -0.697724 -174.53 4.96328 0.168378 180 7.01507e-015 178.763 174.688 27.5106 -179.464 -1.24761e-006 -4.95997e-006 0.783223 -36.8876 76.7485 33.7975 10.1036 46.5906 -4.86969 -170.905 38.8489 -0.602377 4.54188e-006 -4.6773e-006 -0.539212 0.608336 -17.7627 0.969234 -1.11265e-006 3.62394e-006 0.0825627 9.5175 60.008 -15.4107 -8.13133 25.2329 3.48432 
51.2242 80.7033 13.4529 -12.7189 -0.752431 71.1664 -1.40591 -3.15552 1.18017 -2.75186 -2.33886 2.46532 -2.78044 -0.695552 2.51097 1.98341 -24.8223 -1.22181 9.26506 23.2879 -2.2826 21.2252 -7.07836 -2.42867 -62.8275 63.4933 157.791 5.90595e-006 -9.40892e-007 7.82513e-007 -3.08889 5.02714 -1.2239 -1.00231e-006 7.6283e-006 -2.9961 8.02907 -4.95158 0.697792 -77.3648 -17.8197 9.66991 -89.1225 11.0788 -21.43 -1.25497e-007 7.24669e-008 1.81552e-009 -4.77032 21.8175 1.45134 -5.35521e-006 -7.14769e-006 3.00001 -8.02942 -4.95156 -0.697724 -174.456 5.01129 0.116797 180 7.01507e-015 178.761 174.692 27.421 -179.477 -1.24761e-006 -4.95997e-006 0.770446 -36.5739 76.6065 33.4202 10.1303 46.7724 -4.89605 -170.957 38.9772 -0.549732 4.54188e-006 -4.6773e-006 -0.537436 0.606513 -17.78 0.967589 -1.11265e-006 3.62394e-006 0.0771592 9.5786 60.0244 -15.4081 -8.13133 25.2329 3.48431 
51.3078 80.7268 13.4977 -12.856 -0.778337 71.3531 -1.40538 -3.16219 1.18149 -2.75057 -2.35223 2.46828 -2.77918 -0.708921 2.51386 1.63843 -25.099 -1.36308 9.64676 23.4305 -2.48523 20.6941 -7.10306 -2.42011 -63.237 63.5503 158.19 5.90595e-006 -9.40892e-007 7.82513e-007 -3.02146 4.21994 -1.23278 -1.00231e-006 7.6283e-006 -2.99629 8.02907 -4.95158 0.697792 -77.6353 -17.6814 9.58678 -88.8929 11.1488 -21.4597 -1.25497e-007 7.24669e-008 1.81552e-009 -4.81315 21.8675 1.4634 -5.35521e-006 -7.14769e-006 3.00001 -8.02942 -4.95156 -0.697724 -174.384 5.06316 0.0636541 180 7.01506e-015 178.759 174.699 27.3327 -179.49 -1.24761e-006 -4.95997e-006 0.75774 -36.2662 76.4645 33.051 10.1571 46.9529 -4.92248 -171.006 39.1052 -0.500432 4.54188e-006 -4.6773e-006 -0.535772 0.603159 -17.794 0.965499 -1.11265e-006 3.62394e-006 0.0718979 9.63901 60.0406 -15.4055 -8.13133 25.2329 3.4843 
51.3738 80.7429 13.5076 -12.9947 -0.802412 71.5352 -1.40491 -3.16904 1.18276 -2.7494 -2.36595 2.47106 -2.77804 -0.722641 2.51658 1.28715 -25.3761 -1.50471 10.0369 23.5725 -2.68789 20.1774 -7.12131 -2.40346 -63.6332 63.6213 158.571 5.90595e-006 -9.40892e-007 7.82513e-007 -2.94321 3.47056 -1.24092 -1.00231e-006 7.6283e-006 -2.99673 8.02907 -4.95158 0.697792 -77.9045 -17.5431 9.50474 -88.6665 11.2197 -21.4904 -1.25497e-007 7.24669e-008 1.81551e-009 -4.85393 21.9168 1.47509 -5.35521e-006 -7.14769e-006 3.00001 -8.02942 -4.95156 -0.697724 -174.312 5.11927 0.00898897 180 7.01506e-015 178.757 174.708 27.2458 -179.504 -1.24761e-006 -4.95997e-006 0.74511 -35.9637 76.3225 32.6894 10.1839 47.1318 -4.94894 -171.051 39.2325 -0.454967 4.54188e-006 -4.6773e-006 -0.534231 0.598212 -17.8043 0.962948 -1.11265e-006 3.62394e-006 0.066826 9.69857 60.0573 -15.4033 -8.13133 25.2329 3.4843 
51.4442 80.7621 13.5306 -13.1352 -0.824496 71.712 -1.40459 -3.17604 1.18396 -2.74854 -2.37997 2.47355 -2.77719 -0.736662 2.51901 0.931193 -25.6543 -1.64611 10.4347 23.7142 -2.88978 19.6797 -7.13256 -2.37811 -64.015 63.7055 158.93 5.90595e-006 -9.40892e-007 7.82513e-007 -2.85273 2.78506 -1.24843 -1.00231e-006 7.6283e-006 -2.99747 8.02907 -4.95158 0.697792 -78.171 -17.4063 9.42474 -88.4453 11.2923 -21.5214 -1.25497e-007 7.24669e-008 1.81552e-009 -4.89247 21.9655 1.48639 -5.35521e-006 -7.14769e-006 3.00001 -8.02942 -4.95156 -0.697724 -174.242 5.18003 -0.0471591 180 7.01505e-015 178.755 174.72 27.1604 -179.518 -1.24761e-006 -4.95997e-006 0.732559 -35.6661 76.1804 32.3351 10.2108 47.309 -4.97537 -171.092 39.3589 -0.413829 4.54188e-006 -4.6773e-006 -0.532827 0.591609 -17.8102 0.959916 -1.11265e-006 3.62394e-006 0.0619906 9.75713 60.0746 -15.4016 -8.13133 25.2329 3.48429 
51.5323 80.7055 13.5502 -13.2775 -0.844438 71.883 -1.40451 -3.18317 1.18501 -2.74816 -2.39424 2.47565 -2.77683 -0.750933 2.52107 0.572159 -25.9346 -1.78669 10.8393 23.8564 -3.0901 19.2055 -7.13629 -2.34345 -64.381 63.8024 159.261 5.90595e-006 -9.40892e-007 7.82513e-007 -2.74865 2.16945 -1.25543 -1.00231e-006 7.6283e-006 -2.99855 8.02907 -4.95158 0.697792 -78.4331 -17.2727 9.3477 -88.2312 11.3672 -21.5519 -1.25497e-007 7.24669e-008 1.81551e-009 -4.92854 22.0142 1.49728 -5.35521e-006 -7.14769e-006 3.00001 -8.02942 -4.95156 -0.697724 -174.174 5.24584 -0.104751 180 7.01505e-015 178.754 174.734 27.0765 -179.533 -1.24761e-006 -4.95997e-006 0.720093 -35.3728 76.0382 31.9875 10.2375 47.4843 -5.00171 -171.128 39.484 -0.377516 4.54188e-006 -4.6773e-006 -0.53157 0.583288 -17.8114 0.956387 -1.11265e-006 3.62394e-006 0.0574387 9.81455 60.093 -15.4006 -8.13133 25.2329 3.48429 
51.5956 80.7367 13.5779 -13.4219 -0.862097 72.0476 -1.40476 -3.19039 1.18589 -2.74846 -2.40871 2.47724 -2.77714 -0.765405 2.52264 0.21167 -26.2176 -1.92588 11.25 23.9996 -3.28806 18.7597 -7.13196 -2.29886 -64.7299 63.9113 159.559 5.90595e-006 -9.40892e-007 7.82513e-007 -2.62957 1.62976 -1.26206 -1.00231e-006 7.6283e-006 -3 8.02907 -4.95158 0.697792 -78.6891 -17.1437 9.27456 -88.0263 11.4451 -21.5814 -1.25497e-007 7.24669e-008 1.81551e-009 -4.96193 22.0631 1.50773 -5.35521e-006 -7.14769e-006 3.00001 -8.02942 -4.95156 -0.697724 -174.107 5.31708 -0.163748 180 7.01505e-015 178.752 174.751 26.9941 -179.549 -1.24761e-006 -4.95997e-006 0.707715 -35.0833 75.8957 31.6466 10.2642 47.6575 -5.02791 -171.159 39.6077 -0.346529 4.54188e-006 -4.6773e-006 -0.530474 0.573189 -17.8073 0.952343 -1.11265e-006 3.62394e-006 0.0532175 9.87067 60.1129 -15.4004 -8.13133 25.2329 3.48428 
51.6699 80.7415 13.5958 -13.5708 -0.876558 72.2065 -1.40518 -3.19821 1.18671 -2.74908 -2.42438 2.47851 -2.77776 -0.78108 2.52389 -0.16255 -26.5049 -2.06677 11.6791 24.1443 -3.48827 18.3286 -7.11808 -2.24183 -65.0617 64.04 159.812 5.90595e-006 -9.40892e-007 7.82513e-007 -2.47818 1.16684 -1.26714 -1.00231e-006 7.6283e-006 -3.00205 8.02907 -4.95158 0.697792 -78.9473 -17.0124 9.20171 -87.8221 11.5232 -21.614 -1.25497e-007 7.24669e-008 1.81553e-009 -4.99247 22.1118 1.51775 -5.35521e-006 -7.14769e-006 3.00001 -8.02942 -4.95156 -0.697724 -174.041 5.39632 -0.225779 180 7.01504e-015 178.751 174.772 26.9123 -179.566 -1.24761e-006 -4.95997e-006 0.695326 -34.8004 75.7524 31.3105 10.289 47.8309 -5.04956 -171.184 39.7329 -0.3216 4.54188e-006 -4.6773e-006 -0.529563 0.5598 -17.7972 0.947348 -1.11265e-006 3.62394e-006 0.0491708 9.92656 60.1336 -15.4006 -8.13133 25.2329 3.48428 
51.7185 80.7414 13.6143 -13.7261 -0.887435 72.361 -1.40554 -3.20704 1.18759 -2.74958 -2.44205 2.47969 -2.77826 -0.798755 2.52507 -0.561452 -26.7963 -2.21235 12.1367 24.2899 -3.69503 17.8967 -7.09415 -2.17122 -65.3785 64.195 160.016 5.90595e-006 -9.40892e-007 7.82513e-007 -2.28326 0.77432 -1.26962 -1.00231e-006 7.6283e-006 -3.0048 8.02907 -4.95158 0.697792 -79.2151 -16.8716 9.12546 -87.6102 11.5989 -21.6539 -1.25497e-007 7.24668e-008 1.81552e-009 -5.02024 22.1596 1.52739 -5.35521e-006 -7.14769e-006 3.00001 -8.02942 -4.95156 -0.697724 -173.974 5.48495 -0.292087 180 7.01504e-015 178.749 174.797 26.8303 -179.585 -1.24761e-006 -4.95997e-006 0.682845 -34.5268 75.6078 30.9785 10.3109 48.0063 -5.06344 -171.205 39.862 -0.302725 4.54188e-006 -4.6773e-006 -0.528844 0.542086 -17.7813 0.941102 -1.11265e-006 3.62394e-006 0.0451293 9.98317 60.1544 -15.4009 -8.13133 25.2329 3.48427 
51.7892 80.7737 13.6341 -13.8866 -0.895374 72.5112 -1.40585 -3.21669 1.18854 -2.74994 -2.46136 2.4808 -2.77862 -0.818064 2.52617 -0.981419 -27.0907 -2.36189 12.6183 24.4359 -3.90712 17.4662 -7.06115 -2.08849 -65.6812 64.3741 160.18 5.90595e-006 -9.40892e-007 7.82513e-007 -2.05266 0.447437 -1.26982 -1.00231e-006 7.6283e-006 -3.00814 8.02907 -4.95158 0.697792 -79.4906 -16.723 9.04657 -87.3926 11.6727 -21.6997 -1.25497e-007 7.24669e-008 1.8155e-009 -5.04549 22.2064 1.53666 -5.35521e-006 -7.14769e-006 3.00001 -8.02942 -4.95156 -0.697724 -173.908 5.58166 -0.362057 180 7.01503e-015 178.748 174.828 26.7484 -179.605 -1.24761e-006 -4.95997e-006 0.670311 -34.2613 75.4623 30.651 10.3303 48.1831 -5.07128 -171.221 39.9942 -0.289303 4.54188e-006 -4.6773e-006 -0.528298 0.520702 -17.7603 0.933793 -1.11265e-006 3.62394e-006 0.041121 10.0402 60.1752 -15.4012 -8.13133 25.2329 3.48427 
